<svg width="66" height="44" viewBox="0 0 66 44" xmlns="http://www.w3.org/2000/svg">
<path d="M29.144 29.216C29.176 29.1627 29.224 29.12 29.288 29.088C29.3627 29.0453 29.432 29.024 29.496 29.024H30.472C30.6213 29.024 30.696 29.0987 30.696 29.248V39.776C30.696 39.9253 30.6213 40 30.472 40H29.704C29.5547 40 29.48 39.9253 29.48 39.776V30.544L27.16 34.32C27.128 34.3733 27.0747 34.4213 27 34.464C26.936 34.496 26.8773 34.512 26.824 34.512H26.344C26.28 34.512 26.2107 34.496 26.136 34.464C26.072 34.4213 26.024 34.3733 25.992 34.32L23.672 30.544V39.776C23.672 39.9253 23.5973 40 23.448 40H22.696C22.5467 40 22.472 39.9253 22.472 39.776V29.248C22.472 29.0987 22.5467 29.024 22.696 29.024H23.672C23.7253 29.024 23.784 29.0453 23.848 29.088C23.9227 29.12 23.976 29.1627 24.008 29.216L26.584 33.056L29.144 29.216ZM33.8683 39.776V29.248C33.8683 29.0987 33.9429 29.024 34.0923 29.024H41.5483C41.6976 29.024 41.7723 29.0987 41.7723 29.248V30.016C41.7723 30.1653 41.6976 30.24 41.5483 30.24H35.0683V33.904H40.6843C40.7376 33.904 40.7856 33.9307 40.8283 33.984C40.8816 34.0267 40.9083 34.0747 40.9083 34.128V34.896C40.9083 34.96 40.8816 35.0133 40.8283 35.056C40.7856 35.0987 40.7376 35.12 40.6843 35.12H35.0683V38.784H41.5483C41.6123 38.784 41.6656 38.8107 41.7083 38.864C41.7509 38.9067 41.7723 38.9547 41.7723 39.008V39.776C41.7723 39.9253 41.6976 40 41.5483 40H34.0923C33.9429 40 33.8683 39.9253 33.8683 39.776ZM51.7769 39.776V35.12H45.9689V39.776C45.9689 39.9253 45.8942 40 45.7449 40H44.9929C44.8435 40 44.7689 39.9253 44.7689 39.776V29.248C44.7689 29.0987 44.8435 29.024 44.9929 29.024H45.7449C45.8942 29.024 45.9689 29.0987 45.9689 29.248V33.904H51.7769V29.248C51.7769 29.0987 51.8515 29.024 52.0009 29.024H52.7689C52.9182 29.024 52.9929 29.0987 52.9929 29.248V39.776C52.9929 39.9253 52.9182 40 52.7689 40H52.0009C51.8515 40 51.7769 39.9253 51.7769 39.776ZM62.9015 31.36C62.9015 31.0507 62.7948 30.784 62.5815 30.56C62.3575 30.3467 62.0908 30.24 61.7815 30.24H60.6295C60.3202 30.24 60.0588 30.3467 59.8455 30.56C59.6215 30.784 59.5095 31.0507 59.5095 31.36V37.664C59.5095 37.9733 59.6215 38.24 59.8455 38.464C60.0588 38.6773 60.3202 38.784 60.6295 38.784H61.7815C62.0908 38.784 62.3575 38.6773 62.5815 38.464C62.7948 38.24 62.9015 37.9733 62.9015 37.664V31.36ZM63.4295 29.712C63.6428 29.9253 63.8135 30.1707 63.9415 30.448C64.0588 30.736 64.1175 31.04 64.1175 31.36V37.664C64.1175 37.984 64.0588 38.288 63.9415 38.576C63.8135 38.864 63.6428 39.1093 63.4295 39.312C63.2162 39.5253 62.9708 39.696 62.6935 39.824C62.4375 39.9307 62.1708 39.9893 61.8935 40H60.6295C60.3095 40 60.0108 39.9413 59.7335 39.824C59.4455 39.696 59.2002 39.5253 58.9975 39.312C58.7842 39.1093 58.6188 38.864 58.5015 38.576C58.3735 38.288 58.3095 37.984 58.3095 37.664V35.12H57.1095V39.776C57.1095 39.84 57.0882 39.8933 57.0455 39.936C56.9922 39.9787 56.9388 40 56.8855 40H56.1175C55.9682 40 55.8935 39.9253 55.8935 39.776V29.248C55.8935 29.184 55.9202 29.1307 55.9735 29.088C56.0162 29.0453 56.0642 29.024 56.1175 29.024H56.8855C57.0348 29.024 57.1095 29.0987 57.1095 29.248V33.904H58.3095V31.36C58.3095 31.04 58.3735 30.736 58.5015 30.448C58.6188 30.1707 58.7842 29.9253 58.9975 29.712C59.2002 29.4987 59.4455 29.328 59.7335 29.2C60.0108 29.0827 60.3095 29.024 60.6295 29.024H61.8935C62.1708 29.0347 62.4375 29.0933 62.6935 29.2C62.9708 29.328 63.2162 29.4987 63.4295 29.712Z"/>
<line y1="1.5" x2="65.7143" y2="1.5" stroke-width="3"/>
<line x1="12.5408" y1="11.167" x2="65.7142" y2="11.167" stroke-width="3"/>
<line x1="27.59" y1="21.5" x2="65.7143" y2="21.5" stroke-width="3"/>
</svg>
